<?xml version="1.0" standalone="no"?>
<!DOCTYPE svg PUBLIC "-//W3C//DTD SVG 1.1//EN" "http://www.w3.org/Graphics/SVG/1.1/DTD/svg11.dtd" >
<svg xmlns="http://www.w3.org/2000/svg">
<metadata>Generated by IcoMoon</metadata>
<defs>
<font id="PhotographyIcons" horiz-adv-x="1024">
<font-face units-per-em="1024" ascent="960" descent="-64" />
<missing-glyph horiz-adv-x="1024" />
<glyph unicode="&#x20;" horiz-adv-x="512" d="" />
<glyph unicode="&#xe900;" glyph-name="photography_camera" d="M930.528 670.72h-105.472l-79.776 190.896c-4.976 11.92-16.624 19.664-29.52 19.664h-272c-13.488 0-25.536-8.464-30.096-21.152l-68.272-189.408h-23.392v68.224c0 17.664-14.336 32-32 32h-160c-17.664 0-32-14.336-32-32v-68.224h-11.824c-48.64 0-88.192-34.688-88.192-77.328v-453.328c0-42.64 39.568-77.328 88.192-77.328h319.792v1.68c52.704-31.52 114.288-49.68 180.032-49.68 66.032 0 127.856 18.32 180.72 50.080v-2.080h163.808c52.080 0 92.896 33.968 92.896 77.328v453.312c0 43.376-40.8 77.344-92.896 77.344zM162 706.944h96v-30.432h-96v30.432zM466.24 817.28h228.208l58.912-140.96c-49.808 27.024-106.816 42.4-167.36 42.4-62.192 0-120.64-16.288-171.392-44.704l51.632 143.264zM61.984 140.048v453.328c0 5.312 9.648 13.328 24.192 13.328h242.672c-58.768-62.928-94.832-147.312-94.832-240s36.064-177.072 94.832-240h-242.672c-14.544 0.016-24.192 8.032-24.192 13.344zM298 366.72c0 158.8 129.2 288 288 288s288-129.2 288-288-129.2-288-288-288-288 129.2-288 288zM959.424 140.048c0-4.064-10.912-13.328-28.896-13.328h-87.36c58.768 62.928 94.832 147.312 94.832 240s-36.064 177.072-94.832 240h87.36c17.984 0 28.896-9.264 28.896-13.328v-453.344z" />
<glyph unicode="&#xe901;" glyph-name="photography_camera-back" d="M932 665.056h-7.296v73.872c0 17.664-14.336 32-32 32h-160c-17.664 0-32-14.336-32-32v-73.872h-21.36l-70.288 195.072c-4.576 12.688-16.608 21.152-30.096 21.152h-272c-12.912 0-24.544-7.744-29.52-19.664l-82.144-196.56h-103.296c-50.72 0-92-40.048-92-89.264v-429.472c0-49.216 41.28-89.264 92-89.264h177.568c51.12-27.632 108.656-42.336 167.136-42.336 58.496 0 116.032 14.72 167.152 42.336h328.144c50.72 0 92 40.048 92 89.264v429.472c0 49.216-41.28 89.264-92 89.264zM764.704 706.944h96v-30.432h-96v30.432zM328.256 817.28h228.208l54.848-152.224h-346.672l63.616 152.224zM960 146.336c0-13.936-12.56-25.264-28-25.264h-840c-15.44 0-28 11.328-28 25.264v429.456c0 13.936 12.56 25.264 28 25.264h840c15.44 0 28-11.328 28-25.264v-429.456zM629.968 553.056h-395.936c-49.648 0-90.032-38.72-90.032-86.32v-211.36c0-47.6 40.384-86.32 90.032-86.32h395.92c49.648 0 90.032 38.72 90.032 86.32v211.36c0.016 47.6-40.368 86.32-90.016 86.32zM656 255.376c0-12.304-11.68-22.32-26.032-22.32h-395.936c-14.352 0-26.032 10.016-26.032 22.32v211.36c0 12.304 11.68 22.32 26.032 22.32h395.92c14.352 0 26.032-10.016 26.032-22.32v-211.36zM260.704 447.040h336v-64h-336v64zM260.704 339.072h336v-64h-336v64z" />
<glyph unicode="&#xe902;" glyph-name="photography_lens" d="M1008.768 587.248l-62.768 38.64v29.392l32.272 22.448c8.608 5.984 13.728 15.792 13.728 26.272v64c0 17.664-14.336 32-32 32h-160c-17.664 0-32-14.336-32-32v-16h-384c-3.952 0-7.696-0.816-11.2-2.128l-0.032 0.080-122.56-45.952h-90.208c-17.664 0-32-14.336-32-32v-32h-96c-17.664 0-32-14.336-32-32v-320c0-17.664 14.336-32 32-32h96v-32c0-17.664 14.336-32 32-32h90.208l122.592-45.888c3.504-1.296 7.248-2.112 11.2-2.112h384v-16c0-17.664 14.336-32 32-32h160c17.664 0 32 14.336 32 32v64c0 10.48-5.12 20.288-13.728 26.272l-32.272 22.448v29.392l62.768 38.64c9.472 5.824 15.232 16.144 15.232 27.248v224c0 11.104-5.76 21.424-15.232 27.248zM128 320h-64v256h64v-256zM288 649.824l64 24v-451.664l-64 24v403.664zM224 256h-32v384h32v-384zM416 208v480h352v-48h-160v-64h160v-16h-160v-64h160v-48h-160v-64h160v-64h-160v-64h160v-48h-352zM960 353.888l-62.768-38.64c-9.456-5.824-15.232-16.144-15.232-27.248v-64c0-10.48 5.12-20.288 13.728-26.272l32.272-22.448v-15.28h-96v576h96v-15.28l-32.272-22.448c-8.608-5.984-13.728-15.792-13.728-26.272v-64c0-11.104 5.76-21.424 15.232-27.248l62.768-38.64v-188.224z" />
<glyph unicode="&#xe903;" glyph-name="photography_focal-length" d="M800.496 0h-96v128h-64v-128h-96v128h-64v-128h-96v128h-64v-128h-96v128h-64v-128h-96v192h-64v-192h-0.992v-64h864.992v256h-64zM1009.264 747.248l-62.768 38.64v29.392l32.288 22.448c8.592 5.984 13.712 15.792 13.712 26.272v64c0 17.664-14.336 32-32 32h-160c-17.664 0-32-14.336-32-32v-16h-384c-3.952 0-7.696-0.816-11.2-2.128l-0.032 0.080-122.56-45.952h-90.208c-17.664 0-32-14.336-32-32v-32h-96c-17.664 0-32-14.336-32-32v-320c0-17.664 14.336-32 32-32h96v-32c0-17.664 14.336-32 32-32h90.208l122.592-45.888c3.504-1.296 7.248-2.112 11.2-2.112h384v-16c0-17.664 14.336-32 32-32h160c17.664 0 32 14.336 32 32v64c0 10.48-5.12 20.288-13.712 26.272l-32.288 22.448v29.392l62.768 38.64c9.472 5.824 15.232 16.144 15.232 27.248v224c0 11.104-5.76 21.424-15.232 27.248zM128.496 480h-64v256h64v-256zM288.496 809.824l64 24v-451.664l-64 24v403.664zM224.496 416h-32v384h32v-384zM416.496 368v480h352v-48h-160v-64h160v-16h-160v-64h160v-48h-160v-64h160v-64h-160v-64h160v-48h-352zM960.496 513.888l-62.768-38.64c-9.472-5.824-15.232-16.144-15.232-27.248v-64c0-10.48 5.12-20.288 13.712-26.272l32.288-22.448v-15.28h-96v576h96v-15.28l-32.288-22.448c-8.576-5.984-13.712-15.792-13.712-26.272v-64c0-11.104 5.76-21.424 15.232-27.248l62.768-38.64v-188.224z" />
<glyph unicode="&#xe904;" glyph-name="photography_aperture" d="M494.368 931.296c58.368-66.208 103.344-147.296 133.104-227.296h-20.128c-102.736 80-220.736 134.768-345.472 159.088 69.872 42.608 150 65.136 232.496 68.208zM508.32 960c-125.6-0.96-240.48-47.040-329.12-122.88 154.88-13.76 297.28-74.56 416.64-172.16 0.16-0.16 0.32-0.16 0.64-0.16l-0.176-0.32c33.456-27.36 64.976-57.6 94.56-90.4-23.344 145.92-86.384 281.6-182.544 385.92v0zM625.616 914.448c79.312-19.28 152.976-58.752 213.328-114.912-5.024-92.432-31.824-187.536-77.248-276.336-12.528 141.632-59.776 277.744-136.080 391.248zM552.48 958.4c123.040-145.92 188.32-343.68 179.84-545.76 85.28 121.6 135.040 263.52 139.2 400-83.36 82.24-195.040 136.16-319.040 145.76v0zM922.928 696.208c41.952-69.424 65.824-148.912 68.784-230.72-69.552-61.264-152.544-107.856-244.272-137.472 89.184 108.544 150.272 236.544 175.488 368.192zM901.92 779.84c-14.4-187.36-105.44-371.040-251.2-508.64 141.12 24.8 272 87.040 373.28 180.32-0.8 125.28-46.56 239.84-122.080 328.32v0zM978.4 334.368c-19.296-79.232-58.752-152.88-114.88-213.312-86.496 4.704-175.248 28.432-258.944 68.624l15.6 12.304c131.76 16.64 254 61.968 358.224 132.384zM1022.4 407.68c-114.4-96.48-260.336-157.12-415.2-175.040-0.8-0.64-1.44-1.28-2.256-1.92l-1.44 1.44c-30.384-3.36-61.104-5.28-92-5.28-11.664 0-23.36 0.48-35.024 0.96 121.6-85.44 263.664-135.2 400.16-139.36 82.24 83.52 136.16 195.040 145.76 319.2v0zM392.112 212.496c108.544-89.152 236.48-150.224 368.096-175.424-69.424-41.952-148.912-65.824-230.72-68.768-61.136 69.408-107.696 152.384-137.376 244.192zM335.2 309.28c24.96-141.12 87.024-272 180.32-373.28 125.28 0.8 239.84 46.56 328.336 122.080-187.376 14.4-371.056 105.44-508.656 251.2v0zM256.32 352.768l9.488-12.544c16.464-131.792 61.792-254.176 132.384-358.608-78.864 19.232-152.192 58.432-212.4 114.176 6.272 88.544 30.288 175.616 70.528 256.976zM291.52 473.44c-82.4-115.36-131.68-249.92-138.56-390.56 83.36-81.92 194.736-135.68 318.56-145.28-96.464 114.4-157.28 260.32-175.024 415.52-0.64 0.64-1.28 1.28-1.76 1.92l1.44 1.28c-4.336 38.72-5.776 77.76-4.656 117.12v0zM284.464 570.592c-93.072-108.88-155.696-236.992-182.096-372.88-42.768 69.984-67.104 150.208-70.080 232.8 71.696 63.168 157.408 110.656 252.176 140.080zM383.36 626.56c-144.96-23.52-279.68-86.56-383.36-182.080 0.8-125.76 47.040-240.8 123.040-329.44 17.28 197.76 111.36 376.32 260.32 511.52v0zM159.776 774.208c93.856-6.624 185.952-32.896 271.264-77.088-140.592-13.040-273.376-59.68-385.456-135.344 19.248 78.88 58.464 152.224 114.192 212.432zM146.88 807.040c-81.92-83.36-135.68-194.72-145.28-318.56 137.648 116.080 321.056 180.416 511.088 180.416 8.768 0 17.568-0.144 26.352-0.416-115.84 82.56-251.36 131.68-392.16 138.56v0z" />
<glyph unicode="&#xe905;" glyph-name="photography_aperture-black" d="M690.88 574.080c-29.6 32.8-61.104 63.040-94.56 90.4l0.176 0.32c-0.336 0-0.48 0-0.64 0.16-119.36 97.6-261.76 158.4-416.64 172.16 88.624 75.84 203.504 121.92 329.104 122.88 96.16-104.32 159.2-240 182.56-385.92zM732.32 412.64c8.48 202.080-56.8 399.84-179.84 545.76 124-9.6 235.68-63.52 319.040-145.76-4.16-136.48-53.92-278.4-139.2-400zM1024 451.52c-101.28-93.28-232.16-155.52-373.28-180.32 145.76 137.6 236.8 321.28 251.2 508.64 75.52-88.48 121.28-203.040 122.080-328.32zM1022.4 407.68c-9.616-124.16-63.536-235.68-145.76-319.2-136.48 4.16-278.56 53.92-400.16 139.36 11.664-0.48 23.36-0.96 35.024-0.96 30.896 0 61.616 1.92 92 5.28l1.44-1.44c0.816 0.64 1.456 1.28 2.256 1.92 154.88 17.92 300.8 78.56 415.2 175.040zM843.84 58.080c-88.48-75.52-203.040-121.28-328.32-122.080-93.28 101.28-155.36 232.16-180.32 373.28 137.6-145.76 321.28-236.8 508.64-251.2zM471.52-62.4c-123.824 9.6-235.2 63.36-318.56 145.28 6.896 140.64 56.176 275.2 138.56 390.56-1.104-39.36 0.336-78.4 4.64-117.12l-1.44-1.28c0.48-0.64 1.12-1.28 1.76-1.92 17.76-155.2 78.56-301.12 175.040-415.52zM383.36 626.56c-148.96-135.2-243.040-313.76-260.32-511.52-76 88.64-122.24 203.68-123.040 329.44 103.68 95.52 238.4 158.56 383.36 182.080zM539.040 668.48c-199.36 6.24-393.44-58.56-537.44-180 9.6 123.84 63.36 235.2 145.28 318.56 140.8-6.88 276.32-56 392.16-138.56z" />
<glyph unicode="&#xe906;" glyph-name="photography_metering-mode-1" d="M874 848h-708c-93.088 0-166-64.656-166-147.2v-489.6c0-85.408 79.12-163.2 166-163.2h282v80h-282c-42.608 0-86 42-86 83.2v489.6c0 41.504 44.64 67.2 86 67.2h708c43.184 0 70-25.744 70-67.2v-489.6c0-40.016-26.768-83.2-70-83.2h-298v-80h298c82.704 0 150 73.216 150 163.2v489.6c0 85.296-63.088 147.2-150 147.2z" />
<glyph unicode="&#xe907;" glyph-name="photography_metering-mode-2" d="M874 48h-298v80h298c43.232 0 70 43.184 70 83.2v489.6c0 41.456-26.816 67.2-70 67.2h-708c-41.36 0-86-25.696-86-67.2v-489.6c0-41.216 43.392-83.2 86-83.2h282v-80h-282c-86.88 0-166 77.792-166 163.2v489.6c0 82.544 72.912 147.2 166 147.2h708c86.912 0 150-61.904 150-147.2v-489.6c0-89.984-67.296-163.2-150-163.2zM608 448c0-53.019-42.981-96-96-96s-96 42.981-96 96c0 53.019 42.981 96 96 96s96-42.981 96-96zM481.008 242.592c-105.872 0.208-177.12 106.384-177.12 205.408 0 97.088 80.112 205.28 176.112 205.28v-48c-80 0-128.112-83.024-128.112-157.28 0-74.336 53.088-157.264 129.168-157.408l-0.048-48zM544.224 240c-0.096 0-0.208 0-0.304 0l0.096 48c0.064 0 0.144 0 0.208 0 36.24 0 62.72 20.224 78.576 36.032 30.8 30.752 49.2 77.28 49.2 123.28 0 75.92-51.424 157.92-128 157.92v48c105.28 0 176-106.112 176-205.232 0-58.464-23.664-118.368-63.312-157.936-31.904-31.856-70.784-50.064-112.464-50.064z" />
<glyph unicode="&#xe908;" glyph-name="photography_metering-mode-3" d="M874 48h-298v80h298c43.232 0 70 43.184 70 83.2v489.6c0 41.456-26.816 67.2-70 67.2h-708c-41.36 0-86-25.696-86-67.2v-489.6c0-41.216 43.392-83.2 86-83.2h282v-80h-282c-86.88 0-166 77.792-166 163.2v489.6c0 82.544 72.912 147.2 166 147.2h708c86.912 0 150-61.904 150-147.2v-489.6c0-89.984-67.296-163.2-150-163.2zM608 448c0-53.019-42.981-96-96-96s-96 42.981-96 96c0 53.019 42.981 96 96 96s96-42.981 96-96z" />
<glyph unicode="&#xe909;" glyph-name="photography_metering-mode-4" d="M874 48h-298v80h298c43.232 0 70 43.184 70 83.2v489.6c0 41.456-26.832 67.2-70 67.2h-708c-41.36 0-86-25.696-86-67.2v-489.6c0-41.216 43.408-83.2 86-83.2h282v-80h-282c-86.88 0-166 77.792-166 163.2v489.6c0 82.544 72.928 147.2 166 147.2h708c86.928 0 150-61.904 150-147.2v-489.6c0-89.984-67.296-163.2-150-163.2zM608 448c0-53.019-42.981-96-96-96s-96 42.981-96 96c0 53.019 42.981 96 96 96s96-42.981 96-96z" />
<glyph unicode="&#xe90a;" glyph-name="photography_metering-mode-5" d="M874 848h-708c-93.072 0-166-64.656-166-147.2v-489.6c0-85.408 79.12-163.2 166-163.2h282v80h-282c-42.592 0-86 42-86 83.2v489.6c0 41.504 44.64 67.2 86 67.2h708c43.168 0 70-25.744 70-67.2v-489.6c0-40.016-26.768-83.2-70-83.2h-298v-80h298c82.704 0 150 73.216 150 163.2v489.6c0 85.296-63.072 147.2-150 147.2zM608 448c0-53.019-42.981-96-96-96s-96 42.981-96 96c0 53.019 42.981 96 96 96s96-42.981 96-96zM274.304 384h-146.304v-208h320v38.144c-80 21.888-151.456 89.856-173.696 169.856zM448 681.856v38.144h-320v-208h146.304c22.24 80 93.696 147.968 173.696 169.856zM896 720h-320v-38.144c80-21.888 151.456-89.856 173.696-169.856h146.304v208zM576 214.144v-38.144h320v208h-146.304c-22.24-80-93.696-147.968-173.696-169.856z" />
<glyph unicode="&#xe90b;" glyph-name="photography_metering-mode-6" d="M874 848h-708c-93.072 0-166-64.656-166-147.2v-489.6c0-85.408 79.12-163.2 166-163.2h282v80h-282c-42.592 0-86 42-86 83.2v489.6c0 41.504 44.64 67.2 86 67.2h708c43.168 0 70-25.744 70-67.2v-489.6c0-40.016-26.768-83.2-70-83.2h-298v-80h298c82.704 0 150 73.216 150 163.2v489.6c0 85.296-63.072 147.2-150 147.2zM351.872 448c0 74.24 48.128 157.28 128.128 157.28v48c-96 0-176.128-108.176-176.128-205.28 0-99.024 71.248-205.2 177.136-205.408l0.032 48c-76.064 0.144-129.168 83.072-129.168 157.408zM720 448c0 99.104-70.72 205.232-176 205.232v-48c76.56 0 128-82 128-157.92 0-46-18.384-92.528-49.2-123.28-15.856-15.808-42.352-36.032-78.576-36.032-0.064 0-0.144 0-0.208 0l-0.096-48c0.112 0 0.208 0 0.304 0 41.664 0 80.56 18.208 112.48 50.064 39.632 39.568 63.296 99.472 63.296 157.936z" />
<glyph unicode="&#xe90c;" glyph-name="photography_metering-mode-0" d="M603.552 539.328c4.976 7.488 8.864 15.68 11.664 24.576s4.224 18.288 4.224 28.208c0 29.2-11.152 52.368-33.472 69.488s-52 25.68-89.056 25.68c-29.888 0-61.872-5.248-96-15.744v-46.976c31.52 14.064 61.12 21.088 88.816 21.088 22.176 0 39.488-5.008 51.968-15.040 12.464-10.032 18.688-23.104 18.688-39.232 0-11.44-2.72-22.832-8.16-34.176s-17.456-27.616-36.080-48.8l-17.76-20.528c-16.928-19.312-28.080-35.76-33.44-49.36s-8.048-30.8-8.048-51.616v-15.184h55.68v30.944c0 19.872 2.768 35.152 8.304 45.84s16.928 24.288 34.176 40.784l17.44 16.32c15.728 15.008 26.080 26.256 31.056 33.728zM456.88 316.048h55.68v-55.408h-55.68v55.408zM874 848h-708c-93.088 0-166-64.656-166-147.2v-489.6c0-85.424 79.12-163.2 166-163.2h282v80h-282c-42.608 0-86 41.984-86 83.2v489.6c0 41.504 44.64 67.2 86 67.2h708c43.184 0 70-25.744 70-67.2v-489.6c0-40.016-26.768-83.2-70-83.2h-298v-80h298c82.704 0 150 73.216 150 163.2v489.6c0 85.296-63.088 147.2-150 147.2z" />
<glyph unicode="&#xe90d;" glyph-name="photography_iso" d="M872 832h-720c-83.808 0-152-66.992-152-149.344v-469.312c0-82.336 68.192-149.344 152-149.344h720c83.808 0 152 67.008 152 149.344v469.312c0 82.352-68.192 149.344-152 149.344zM960 213.344c0-47.056-39.472-85.344-88-85.344h-720c-48.528 0-88 38.288-88 85.344v469.312c0 47.056 39.472 85.344 88 85.344h720c48.528 0 88-38.288 88-85.344v-469.312zM194.368 594.016h45.936v-323.744h-45.936v323.744zM426.336 451.616l-23.28 13.12c-12.608 7.136-22.512 13.312-29.728 18.48s-12.96 11.376-17.232 18.592c-4.272 7.216-6.4 14.336-6.4 21.328 0 10.208 4.512 20.192 13.552 29.968 9.008 9.76 22.944 14.656 41.712 14.656 8.976 0 17.952-0.992 26.992-2.96s25.664-7.696 49.872-17.184v42.016c-27.84 8.32-54.304 12.464-79.36 12.464-20.816 0-38.080-3.792-51.776-11.376s-24.624-18.080-32.752-31.504c-8.144-13.424-12.208-27.776-12.208-43.088 0-17.056 5.12-32.592 15.376-46.592 10.272-14 30.336-29.456 60.208-46.368l22.416-12.912c22.704-12.848 36.96-23.712 42.736-32.592 5.648-9.056 8.448-18.912 8.448-29.536 0-14.16-5.392-26.304-16.176-36.432s-25.488-15.184-44.112-15.184c-10.272 0-21.424 1.216-33.456 3.712-12.032 2.464-31.088 9.68-57.2 21.664v-45.504c22.704-6.416 39.472-10.4 50.32-11.936s22.048-2.288 33.632-2.288c37.504 0 65.872 9.248 85.136 27.776 19.264 18.496 28.896 40.368 28.896 65.632 0 18.496-5.056 34.912-15.152 49.216-10.128 14.16-30.288 29.776-60.464 46.832zM778.224 580.672c-23.184 14.288-50.176 21.44-80.944 21.44s-57.744-7.152-80.944-21.44c-23.184-14.304-40.72-34.608-52.608-60.928-11.888-26.336-17.824-55.536-17.824-87.616 0-33.248 6.24-63.040 18.704-89.36s30.048-46.336 52.72-60.032c22.672-13.712 49.328-20.56 79.952-20.56 31.504 0 58.736 7.248 81.696 21.744 22.976 14.512 40.336 34.864 52.064 61.024 11.728 26.192 17.616 55.248 17.616 87.184 0 32.080-5.936 61.28-17.824 87.616s-29.424 46.64-52.608 60.928zM773.072 333.056c-17.856-24.368-43.12-36.528-75.792-36.528s-57.936 12.16-75.792 36.528c-17.856 24.336-26.8 57.536-26.8 99.52 0 41.856 8.992 74.848 27.008 98.992 18.016 24.128 43.2 36.208 75.584 36.208s57.568-12.064 75.584-36.208c18.016-24.144 27.008-57.136 27.008-98.992 0-41.984-8.928-75.168-26.8-99.52z" />
<glyph unicode="&#xe90e;" glyph-name="photography_exposure-time" d="M512 960c-17.664 0-32-14.336-32-32 0-1.36 0.24-2.672 0.4-4-0.16-1.328-0.4-2.64-0.4-4v-224c0-17.664 14.336-32 32-32s32 14.336 32 32v198.736c232.144-16.48 416-210.48 416-446.736 0-247.024-200.976-448-448-448s-448 200.976-448 448c0 119.648 46.608 232.144 131.216 316.784 12.496 12.496 12.496 32.752 0 45.264-12.496 12.48-32.752 12.496-45.264 0-96.688-96.736-149.952-225.312-149.952-362.048 0-282.32 229.68-512 512-512s512 229.68 512 512c0 282.32-229.68 512-512 512zM442.896 449.2c1.68-1.68 3.552-3.024 5.424-4.384 1.696-33.824 29.424-60.816 63.68-60.816 35.344 0 64 28.656 64 64 0 34.256-26.992 61.984-60.816 63.68-1.36 1.872-2.704 3.744-4.4 5.424l-19.968 19.936c-18.016 18.032-245.584 215.184-264.336 196.432s180.24-248.080 198.256-266.112l18.16-18.16z" />
<glyph unicode="&#xe90f;" glyph-name="photography_flash-on" d="M496 592h224l-160-368h96l-192-192-96 192h80l64 256h-192l64 384h192z" />
<glyph unicode="&#xe910;" glyph-name="photography_flash-off" d="M512 960c-282.32 0-512-229.68-512-512s229.68-512 512-512 512 229.68 512 512c0 282.32-229.68 512-512 512zM512 912c119.312 0 228.224-45.296 310.496-119.552l-200.432-200.448h-142.064l80 272h-192l-64-384h192l-4.688-18.736-323.76-323.776c-74.256 82.288-119.552 191.2-119.552 310.512 0 255.856 208.16 464 464 464zM512-16c-119.312 0-228.224 45.296-310.512 119.552l267.2 267.2-36.688-146.752h-80l96-192 192 192h-96l160 368h-14.064l166.512 166.512c74.256-82.288 119.552-191.2 119.552-310.512 0-255.84-208.16-464-464-464z" />
<glyph unicode="&#xe911;" glyph-name="photography_filters" d="M512 960c-282.32 0-512-229.68-512-512s229.68-512 512-512 512 229.68 512 512c0 282.32-229.68 512-512 512zM512 0c-247.024 0-448 200.976-448 448s200.976 448 448 448 448-200.976 448-448-200.976-448-448-448zM864 448c0-194.404-157.596-352-352-352s-352 157.596-352 352c0 194.404 157.596 352 352 352s352-157.596 352-352z" />
<glyph unicode="&#xe912;" glyph-name="photography_picture-with-text" d="M64 256h448v-64h-448v64zM64 128h896v-64h-896v64zM64 0h896v-64h-896v64zM1026.544 401.872l-2.544 3.792v554.336h-1024v-640h1024v80.16l2.544 1.712zM944 880v-355.504l-194.656 289.152-331.168-241.088-155.568 107.28-182.608-146.064v346.224h864zM80 400v51.808l185.424 148.336 153.744-106.032 314.16 228.704 210.672-312.944v-9.872h-864zM482.672 752.24c0-53.019-42.981-96-96-96s-96 42.981-96 96c0 53.019 42.981 96 96 96s96-42.981 96-96z" />
<glyph unicode="&#xe913;" glyph-name="photography_picture" d="M1026.544 401.872l-2.544 3.792v554.336h-1024v-1024h1024v464.16l2.544 1.712zM944 880v-355.504l-194.656 289.152-331.168-241.088-155.568 107.28-182.608-146.064v346.224h864zM80 16v435.808l185.424 148.336 153.744-106.032 314.16 228.704 210.672-312.944v-393.872h-864zM482.672 752.24c0-53.019-42.981-96-96-96s-96 42.981-96 96c0 53.019 42.981 96 96 96s96-42.981 96-96zM448.016 424c-179.344 0-330.672-142.496-330.672-232 0-80.448 119.824-87.008 264.592-87.008 30.496 0 61.936 0.432 92.8 0.864 29.392 0.4 58.272 0.816 85.28 0.816 162.432 0 336 36.416 336 138.656 0 111.168-311.152 178.672-448 178.672zM560.016 186.672c-27.36 0-56.608-0.4-86.384-0.816-30.496-0.416-61.568-0.864-91.696-0.864-123.856 0-167.504 9.12-182.88 15.536 13.552 39.856 107.184 143.472 248.976 143.472 157.552 0 341.376-67.76 367.232-101.392-8.432-16.384-86.544-55.936-255.248-55.936z" />
<glyph unicode="&#xe914;" glyph-name="photography_datetime" d="M128 832h157.088v-128h-157.088v128zM337.472 832h157.056v-128h-157.056v128zM546.912 832h157.088v-128h-157.088v128zM128 640h157.088v-128h-157.088v128zM337.472 640h157.056v-128h-157.056v128zM546.912 640h157.088v-128h-157.088v128zM128 448h157.088v-128h-157.088v128zM337.472 448h157.056v-128h-157.056v128zM893.344 414.976v395.712c0 82.336-61.008 149.312-136 149.312h-624c-74.992 0-136-66.992-136-149.328v-469.328c0-82.336 61.008-149.328 136-149.328l378.656-0.032c0-141.152 114.848-255.984 256-255.984s256 114.832 256 255.984c0 95.632-52.784 179.024-130.656 222.992zM133.344 256.016c-39.696 0-72 38.288-72 85.328v469.328c0 47.040 32.304 85.328 72 85.328h624c39.696 0 72-38.272 72-85.312v-370.416c-19.696 4.848-40.16 7.728-61.344 7.728-119.008 0-219.040-81.76-247.568-192l-387.088 0.016zM576 191.984c0 96.592 71.76 176.528 164.704 189.84-2.928-4.832-4.704-10.432-4.704-16.496v-173.328c0-0.624 0.144-1.2 0.176-1.808 0.064-1.136 0.16-2.272 0.336-3.408 0.176-1.040 0.416-2.048 0.688-3.056 0.272-0.976 0.544-1.936 0.896-2.896 0.416-1.104 0.912-2.16 1.44-3.2 0.272-0.528 0.416-1.088 0.72-1.632l86.656-150.112c3.040-5.264 7.376-9.296 12.352-12.016-22.032-8.864-46.064-13.872-71.264-13.872-105.872 0-192 86.128-192 191.984zM886.544 41.264c0.112 5.648-1.152 11.376-4.176 16.624l-82.368 142.672v164.768c0 6.064-1.776 11.664-4.704 16.496 92.944-13.312 164.704-93.248 164.704-189.84 0-61.12-28.816-115.552-73.456-150.72z" />
<glyph unicode="&#xe915;" glyph-name="photography_author" d="M504 832c0-70.692-57.308-128-128-128s-128 57.308-128 128c0 70.692 57.308 128 128 128s128-57.308 128-128zM440 164.576h-128c-35.344 0-64-40.944-64-91.424v-137.152h256v137.152c0 50.496-28.656 91.424-64 91.424zM704.928 728.128l-158.672-77.536c-10.336 21.968-33.616 37.344-60.768 37.344l-218.96-0.016c-36.736 0-66.528-28.032-66.512-62.608l-0.016-354.784c0-34.576 29.792-62.592 66.528-62.592l218.96-0.016c36.752 0 66.512 28.032 66.512 62.608v276.032l195.072 95.312c23.808 11.648 33.68 40.368 22.048 64.208-11.648 23.808-40.4 33.664-64.192 22.048zM696 864v32h-64v-128h64v16h128v80z" />
<glyph unicode="&#xe916;" glyph-name="photography_copyright" d="M512 960c-282.32 0-512-229.68-512-512s229.68-512 512-512 512 229.68 512 512-229.68 512-512 512zM512 0c-247.024 0-448 200.976-448 448s200.976 448 448 448 448-200.976 448-448-200.976-448-448-448zM586.848 218.496c-17.376-3.12-34.816-4.688-52.32-4.688-63.008 0-111.68 21.056-146.064 63.184s-51.568 97.312-51.568 165.568c0 65.504 14.944 120.816 44.816 165.936s78.064 67.68 144.56 67.68c19.008 0 39.056-1.744 60.192-5.248s59.68-14.88 115.68-34.128v73.872c-66.752 16.256-124.88 24.368-174.368 24.368-92.992 0-162-27.312-207.008-81.936s-67.504-124.56-67.504-209.808c0-83.504 21.68-152.88 65.056-208.128s111.808-82.88 205.312-82.88c22.496 0 43.376 1.312 62.624 3.936s37.808 6.752 55.68 12.368 38.192 14.32 60.944 26.064v67.504c-25.504-13.744-46.88-23.68-64.128-29.808s-34.528-10.72-51.904-13.856z" />
<glyph unicode="&#xe917;" glyph-name="photography_geolocation" d="M744.768 756.928l27.184 39.824 129.792-90.912 73.408 104.848-131.024 91.76 0.208 0.32-52.848 36.096-102.544-150.224c-58.256 27.76-123.376 43.36-192.096 43.36-247.024 0-448-200.976-448-448s200.976-448 448-448 448 200.976 448 448c0 155.408-79.584 292.544-200.080 372.928zM879.408 416h-63.472c-5.28 104.144-36.032 198.56-83.664 271.024 82.4-64.16 138.016-161.072 147.136-271.024zM600.8 33.216c30.816 68.224 52.88 173.392 55.712 318.784h95.376c-7.888-142.432-67.776-263.008-151.088-318.784zM633.92 708.064l-14.832-21.712c-5.648 17.808-11.76 33.984-18.304 48.432 11.536-7.712 22.592-16.656 33.136-26.72zM639.456 602.672l37.152 54.4c42.272-62.624 70.080-147.088 75.28-241.072h-95.376c-1.408 71.936-7.504 134.032-17.056 186.672zM592.336 416h-190.976c5.264 219.056 63.184 352 95.488 352s90.208-132.944 95.488-352zM241.792 352h95.376c2.832-145.392 24.912-250.56 55.712-318.784-83.296 55.776-143.2 176.352-151.088 318.784zM392.896 734.784c-30.816-68.224-52.896-173.392-55.728-318.784h-95.376c7.888 142.432 67.792 263.008 151.104 318.784zM261.408 687.024c-47.632-72.464-78.384-166.88-83.664-271.024h-63.456c9.12 109.952 64.72 206.864 147.12 271.024zM114.288 352h63.472c5.28-104.144 36.032-198.56 83.664-271.024-82.416 64.16-138.016 161.072-147.136 271.024zM401.36 352h190.976c-5.264-219.056-63.184-352-95.488-352s-90.224 132.944-95.488 352zM732.288 80.976c47.616 72.464 78.368 166.88 83.648 271.024h63.472c-9.12-109.952-64.736-206.864-147.12-271.024z" />
<glyph unicode="&#xe918;" glyph-name="photography_map" d="M673.456 723.424l-318.496 159.248-354.96-106.48v-706.832l349.040 104.72 321.504-160.752 353.456 141.376v708.944l-350.544-140.224zM384 796.592l256-128v-568.432l-256 128v568.432zM64 728.56l256 76.8v-573.168l-256-76.8v573.168zM960 198.048l-256-102.4v571.072l256 102.384v-571.056zM244.688 549.056l22.624 22.624-52.688 52.688 52.688 52.688-22.624 22.624-52.688-52.672-52.688 52.672-22.624-22.624 52.688-52.688-52.688-52.688 22.624-22.624 52.688 52.688zM765.984 427.68l-22.624-22.624 52.688-52.688-52.688-52.688 22.624-22.624 52.688 52.688 52.688-52.688 22.624 22.624-52.688 52.688 52.688 52.688-22.624 22.624-52.688-52.672zM189.715 487.018l25.936 18.717 69.306-96.037-25.936-18.717-69.306 96.037zM484.728 292.183l-80 32 11.891 29.727 80-32-11.891-29.727zM509.468 356.087l69.336 101.334 26.41-18.070-69.336-101.334-26.41 18.070zM841.519 510.86l-13.734-28.902-106.664 50.687 13.734 28.902 106.664-50.687z" />
<glyph unicode="&#xe919;" glyph-name="photography_tag" d="M920.016 711.632l-274.912 158.72c-11.456 6.624-24.608 10.112-38.016 10.112-30.832 0-60.256-17.776-76.768-46.4l-24.368-42.208-52.848 30.496c-38.816 22.416-90.32 6.128-114.8-36.304l-325.424-563.664c-11.6-20.080-15.552-43.104-11.136-64.864 4.64-22.864 17.808-41.584 37.104-52.704l274.912-158.72c11.824-6.832 24.832-10.064 37.888-10.064 29.808 0 59.904 16.864 76.928 46.336l24.368 42.224 52.832-30.496c11.456-6.608 24.608-10.096 38.032-10.096 30.832 0 60.256 17.76 76.768 46.384l325.424 563.664c24.496 42.416 12.832 95.152-25.984 117.584zM387.008 6.384c-11.264-19.504-33.344-27.872-49.248-18.72l-274.912 158.72c-7.2 4.176-12.208 11.504-14.064 20.672-2.080 10.288-0.064 21.408 5.664 31.328l325.424 563.664c11.264 19.52 33.344 27.888 49.248 18.736l52.832-30.496-277.072-479.904c-11.6-20.080-15.552-43.104-11.136-64.864 4.64-22.864 17.808-41.584 37.104-52.704l180.512-104.224-24.352-42.208zM904.432 618.048l-325.424-563.664c-10.8-18.736-33.728-27.664-49.248-18.72l-274.912 158.72c-7.2 4.176-12.208 11.504-14.064 20.672-2.080 10.288-0.064 21.408 5.664 31.328l325.424 563.664c7.856 13.616 21.68 22.4 35.216 22.4 5.072 0 9.808-1.232 14.032-3.664l274.896-158.72c15.904-9.184 19.664-32.512 8.416-52.016zM695.968 730.672c-52.944 0-96-43.056-96-96s43.056-96 96-96 96 43.056 96 96-43.056 96-96 96zM695.968 570.672c-35.296 0-64 28.704-64 64s28.704 64 64 64 64-28.704 64-64-28.704-64-64-64z" />
<glyph unicode="&#xe91a;" glyph-name="photography_filename" d="M696.352 956.624h-437.44c-45.712 0-82.912-39.264-82.912-87.536v-839.584c0-48.272 37.2-87.536 82.912-87.536h506.192c45.712 0 82.912 39.264 82.912 87.536v780.704l-151.664 146.416zM800 29.52c0-21.792-15.664-39.536-34.912-39.536h-506.176c-19.248 0-34.912 17.728-34.912 39.536v839.568c0 21.792 15.664 39.536 34.912 39.536h389.088v-61.088c0-48.272 37.2-87.536 82.912-87.536h69.088v-730.48zM730.912 808c-19.248 0-34.912 17.728-34.912 39.536v42.72l85.184-82.256h-50.272zM332.992 464h358v-32h-358v32zM333.083 287.279l-0.173 32 358 1.933 0.173-32-358-1.933zM332.992 608h358v-32h-358v32z" />
<glyph unicode="&#xe91b;" glyph-name="photography_size" d="M943.12 832h-862.256c-44.592 0-80.864-36.144-80.864-80.576v-606.848c0-44.432 36.272-80.576 80.864-80.576h862.272c44.592 0 80.864 36.144 80.864 80.576v606.848c-0.016 44.432-36.288 80.576-80.88 80.576zM943.12 96h-862.256c-26.944 0-48.864 21.792-48.864 48.576v606.848c0 26.784 21.92 48.576 48.864 48.576h862.256c26.944 0 48.864-21.792 48.864-48.576v-302.192l-135.168 135.168-33.936-33.936 86.464-86.464h-381.376l-0.48 251.424 86.992-87.008 33.936 33.936-137.632 137.648-135.184-135.184 33.936-33.936 85.952 85.952 0.48-252.832h-375.568l83.168 83.152-33.936 33.936-137.632-137.616 135.184-135.2 33.936 33.936-89.776 89.792h384.688l0.464-248.336-84.688 84.704-33.936-33.936 138.416-138.432 129.84 142.080-35.44 32.368-82.176-89.92-0.48 251.472h378.88l-86.48-86.464 33.936-33.936 137.632 137.616v-304.624c-0.016-26.8-21.936-48.592-48.88-48.592z" />
</font>
</defs>
</svg>
